<svg id="Layer_1" data-name="Layer 1" xmlns="http://www.w3.org/2000/svg" viewBox="0 0 1250 500"><defs><style>.cls-1{fill:#d1ed5d;}.cls-2{fill:#fff;}.cls-3{fill:none;stroke:#fff;stroke-miterlimit:10;stroke-width:12px;}</style></defs><path class="cls-1" d="M169.47,257.9,109,173.4v84.5H57V58.65h52v75l60.5-75h57.25l-77,95.5,77,103.75Z"/><path class="cls-1" d="M301.22,58.65V257.9h-52V58.65Z"/><path class="cls-1" d="M505.72,58.65H559V257.9H507V158.4l-40.75,99.5H429l-40.75-99.5v99.5h-52V58.65h53.25l58,141.75Z"/><path class="cls-2" d="M322.53,341.63a36.36,36.36,0,0,1-2.92,14.77,28.59,28.59,0,0,1-9.37,11.48,31,31,0,0,1,7,3.9,26.42,26.42,0,0,1,5.7,5.85,27.7,27.7,0,0,1,3.9,8.1,35.79,35.79,0,0,1,1.43,10.5,38.78,38.78,0,0,1-2.71,15.3,27.67,27.67,0,0,1-7.42,10.35,28.93,28.93,0,0,1-11,5.85,48.94,48.94,0,0,1-13.5,1.8h-75.3V310h69.6a55.53,55.53,0,0,1,13.5,1.57,28.7,28.7,0,0,1,11,5.33,25.6,25.6,0,0,1,7.42,9.75Q322.53,332.63,322.53,341.63Zm-40.65,12a13.85,13.85,0,0,0,7.65-4.2,10,10,0,0,0,2.55-6.6,6.43,6.43,0,0,0-3.15-5.85,13.12,13.12,0,0,0-7.05-2H248.74v26.7Zm14.55,37.95a10.36,10.36,0,0,0-1.35-5.33,12.52,12.52,0,0,0-3.52-3.9,17.78,17.78,0,0,0-4.88-2.47,34.57,34.57,0,0,0-5.55-1.35l-32.39,8.85v17.25h32.39a18.85,18.85,0,0,0,10.95-3Q296.43,398.63,296.43,391.58Z"/><path class="cls-2" d="M343.23,385.28a48,48,0,0,1,4.28-20.55,46.7,46.7,0,0,1,11.55-15.53A50.81,50.81,0,0,1,376,339.45a62.14,62.14,0,0,1,20.62-3.37,63.3,63.3,0,0,1,20.85,3.37,50.53,50.53,0,0,1,16.95,9.68,45.4,45.4,0,0,1,11.4,15.45,48.7,48.7,0,0,1,4.2,20.55,47.77,47.77,0,0,1-4.2,20.32,46.28,46.28,0,0,1-11.4,15.45,49.84,49.84,0,0,1-16.95,9.75A63.3,63.3,0,0,1,396.63,434,62.15,62.15,0,0,1,376,430.65,51.5,51.5,0,0,1,359.06,421a45.9,45.9,0,0,1-11.55-15.38A47.09,47.09,0,0,1,343.23,385.28Zm53.4,23.1a23.37,23.37,0,0,0,9.3-1.8A20.45,20.45,0,0,0,413,401.7a21.75,21.75,0,0,0,4.43-7.27,25.86,25.86,0,0,0,1.57-9.15,27,27,0,0,0-1.57-9.38,22.54,22.54,0,0,0-4.43-7.42,19.18,19.18,0,0,0-7.05-4.88,24.45,24.45,0,0,0-9.3-1.72,23.2,23.2,0,0,0-9.37,1.8,20.67,20.67,0,0,0-11.48,12.37,27.7,27.7,0,0,0-1.5,9.23,27,27,0,0,0,1.5,9.15,20.24,20.24,0,0,0,4.43,7.27,21.44,21.44,0,0,0,7.05,4.88A23.2,23.2,0,0,0,396.63,408.38Z"/><path class="cls-2" d="M509.88,310h67a49.51,49.51,0,0,1,14.63,2.1,32.26,32.26,0,0,1,11.77,6.37,29.39,29.39,0,0,1,7.8,11,40.68,40.68,0,0,1,2.85,15.9q0,12-4.05,19.42a30.27,30.27,0,0,1-12,11.93l22.8,52.8H588.18l-18.6-43.8-28.5,6.3v37.5h-31.2Zm73,36.15a10.52,10.52,0,0,0-2.77-7.28,9.55,9.55,0,0,0-7.43-3.07H541.08v29l28.5-5.25q7.65-1.35,10.5-5A13.14,13.14,0,0,0,582.93,346.13Z"/><path class="cls-2" d="M730.68,426.08a47,47,0,0,1-3.45,18.3,41.56,41.56,0,0,1-9.52,14.1,44.56,44.56,0,0,1-14.48,9.22,55.5,55.5,0,0,1-18.3,3.83A69.11,69.11,0,0,1,667.68,470a46.07,46.07,0,0,1-15.45-6.37,38.25,38.25,0,0,1-11.47-11.7,37.24,37.24,0,0,1-5.33-17.55h31.2a11.23,11.23,0,0,0,5,8.62,17.09,17.09,0,0,0,9.75,2.93,20.47,20.47,0,0,0,7-1.2,16.49,16.49,0,0,0,9.68-9.15,19.16,19.16,0,0,0,1.42-7.65v-7.05a32.5,32.5,0,0,1-10.87,6.45,36.65,36.65,0,0,1-12.53,2.25,51,51,0,0,1-16.65-2.63,40.38,40.38,0,0,1-13.27-7.42,34.22,34.22,0,0,1-8.78-11.4,33.34,33.34,0,0,1-3.15-14.55V340.58h31.2v43.35a28.34,28.34,0,0,0,1.35,9.37,16.6,16.6,0,0,0,3.6,6.15,12.65,12.65,0,0,0,5.18,3.3,18.33,18.33,0,0,0,5.92,1,17.38,17.38,0,0,0,11.63-4.13,19.24,19.24,0,0,0,6.37-10.87V340.58h31.2Z"/><path class="cls-2" d="M778.68,401.18q6.75,8.55,19.65,8.55A38.78,38.78,0,0,0,813.78,407,36.22,36.22,0,0,0,825.93,398l20.25,15a63.43,63.43,0,0,1-19.57,15.45q-11,5.55-25.88,5.55a69.4,69.4,0,0,1-22.2-3.38,51.68,51.68,0,0,1-17.4-9.67,43,43,0,0,1-11.4-15.38,49.7,49.7,0,0,1-4.05-20.47A48.25,48.25,0,0,1,749.81,365a45.7,45.7,0,0,1,11.32-15.45,52.2,52.2,0,0,1,16.8-9.9,59.38,59.38,0,0,1,20.55-3.52,61.15,61.15,0,0,1,20.7,3.37,46.17,46.17,0,0,1,16.2,9.68A44.06,44.06,0,0,1,846,364.58a53.23,53.23,0,0,1,3.82,20.7Zm20.85-41.1q-10.2,0-16.8,4.95a22,22,0,0,0-8.4,13.8l43.8-9.75a24.14,24.14,0,0,0-7.65-6.45A22.43,22.43,0,0,0,799.53,360.08Z"/><path class="cls-2" d="M860,385.28a48,48,0,0,1,4.28-20.55,46.56,46.56,0,0,1,11.55-15.53,50.81,50.81,0,0,1,17-9.75,62.14,62.14,0,0,1,20.62-3.37,63.3,63.3,0,0,1,20.85,3.37,50.53,50.53,0,0,1,16.95,9.68,45.4,45.4,0,0,1,11.4,15.45,48.7,48.7,0,0,1,4.2,20.55,47.77,47.77,0,0,1-4.2,20.32,46.28,46.28,0,0,1-11.4,15.45,49.84,49.84,0,0,1-16.95,9.75A63.3,63.3,0,0,1,913.38,434a62.15,62.15,0,0,1-20.62-3.38,51.5,51.5,0,0,1-17-9.67,45.77,45.77,0,0,1-11.55-15.38A47.09,47.09,0,0,1,860,385.28Zm53.4,23.1a23.37,23.37,0,0,0,9.3-1.8,20.45,20.45,0,0,0,7.05-4.88,21.75,21.75,0,0,0,4.43-7.27,25.86,25.86,0,0,0,1.57-9.15,27,27,0,0,0-1.57-9.38,22.54,22.54,0,0,0-4.43-7.42,19.18,19.18,0,0,0-7.05-4.88,24.45,24.45,0,0,0-9.3-1.72,23.2,23.2,0,0,0-9.37,1.8,20.67,20.67,0,0,0-11.48,12.37,27.7,27.7,0,0,0-1.5,9.23,27,27,0,0,0,1.5,9.15A20.24,20.24,0,0,0,897,401.7a21.34,21.34,0,0,0,7,4.88A23.2,23.2,0,0,0,913.38,408.38Z"/><path class="cls-2" d="M1010.73,346.88a43.7,43.7,0,0,1,5.85-3.83,46,46,0,0,1,6.53-2.92,48.6,48.6,0,0,1,6.75-1.88,32.49,32.49,0,0,1,6.37-.67,51.26,51.26,0,0,1,16.65,2.62,40.45,40.45,0,0,1,13.28,7.43,34.19,34.19,0,0,1,8.77,11.4,33.34,33.34,0,0,1,3.15,14.55v55.95h-31.2V383.18a28.4,28.4,0,0,0-1.35-9.38,16.77,16.77,0,0,0-3.6-6.15,12.82,12.82,0,0,0-5.17-3.3,18.65,18.65,0,0,0-5.93-1,17.38,17.38,0,0,0-11.62,4.12,19.32,19.32,0,0,0-6.38,10.88v51.15h-31.2V340.58h26.7Z"/><path class="cls-2" d="M1200,426.08a44.48,44.48,0,0,1-3.67,18.3,41.52,41.52,0,0,1-10.28,14.17,48.44,48.44,0,0,1-15.67,9.3,61.6,61.6,0,0,1-19.88,3.68,78.75,78.75,0,0,1-18.82-1.65,54.13,54.13,0,0,1-16.65-6.38,37.73,37.73,0,0,1-12.23-11.62,35.73,35.73,0,0,1-5.55-17.55h31.2a9.84,9.84,0,0,0,2,5,13.16,13.16,0,0,0,4.28,3.6,23.23,23.23,0,0,0,5.77,2.18,27.75,27.75,0,0,0,6.45.75,28.17,28.17,0,0,0,8.18-1.2,22.23,22.23,0,0,0,7.05-3.53,17.58,17.58,0,0,0,4.87-5.62,15.72,15.72,0,0,0,1.8-7.65v-9.15a34.63,34.63,0,0,1-13.2,8.32,43,43,0,0,1-15.15,2.48A52.58,52.58,0,0,1,1122,426a47,47,0,0,1-15.08-9.37,43.1,43.1,0,0,1-10.12-14.33,45.36,45.36,0,0,1-3.68-18.52,46.14,46.14,0,0,1,3.83-19,43.79,43.79,0,0,1,10.35-14.55,47.07,47.07,0,0,1,15.07-9.3,49.55,49.55,0,0,1,18-3.3,57.68,57.68,0,0,1,16.35,2.25,44.45,44.45,0,0,1,14.1,7.05l2.7-6.3H1200Zm-54.9-22.35a24.53,24.53,0,0,0,7.95-1.28,19.38,19.38,0,0,0,6.6-3.75,18.15,18.15,0,0,0,4.58-6.22,20.62,20.62,0,0,0,1.72-8.7,22,22,0,0,0-1.72-9.08,18,18,0,0,0-4.58-6.3,18.57,18.57,0,0,0-6.6-3.67,26.93,26.93,0,0,0-15.9,0,18.57,18.57,0,0,0-6.6,3.67,18,18,0,0,0-4.57,6.3,22,22,0,0,0-1.73,9.08,20.62,20.62,0,0,0,1.73,8.7,18.13,18.13,0,0,0,4.57,6.22,19.38,19.38,0,0,0,6.6,3.75A24.53,24.53,0,0,0,1145.13,403.73Z"/><polyline class="cls-3" points="46.22 485.71 11.34 485.71 11.34 14.29 46.81 14.29"/><polyline class="cls-3" points="1203.78 485.71 1238.66 485.71 1238.66 14.29 1203.19 14.29"/></svg>