<svg width="308" height="308" xmlns="http://www.w3.org/2000/svg" xmlns:xlink="http://www.w3.org/1999/xlink" overflow="hidden"><defs><clipPath id="clip0"><rect x="332" y="179" width="308" height="308"/></clipPath></defs><g clip-path="url(#clip0)" transform="translate(-332 -179)"><path d="M454.558 432.458C484.396 433.421 511.667 432.458 537.975 416.417 567.492 398.45 589.308 369.896 593.479 335.246 597.65 300.596 588.667 265.625 568.775 237.071 550.808 212.688 518.404 191.833 487.283 191.833 511.025 195.683 532.2 209.158 545.675 229.371 559.15 249.583 563.321 274.288 557.546 297.708 552.412 319.846 535.408 338.133 516.479 350.325 497.55 362.517 476.375 361.875 454.558 361.875L454.558 320.167 377.558 397.167C377.558 397.167 441.404 461.013 454.558 474.167L454.558 432.458Z" fill="#D1ED5D"/></g></svg>